<svg xmlns="http://www.w3.org/2000/svg" viewBox="0 0 540 110" fill="none">
  <defs>
    <!-- Glow behind the cube -->
    <radialGradient id="cubeGlow" cx="50%" cy="50%" r="50%">
      <stop offset="0%" stop-color="#10b981" stop-opacity="0.25"/>
      <stop offset="100%" stop-color="#10b981" stop-opacity="0"/>
    </radialGradient>

    <!-- Subtle edge highlight for top face -->
    <linearGradient id="topHighlight" x1="0%" y1="0%" x2="100%" y2="100%">
      <stop offset="0%" stop-color="#34d399" stop-opacity="0.3"/>
      <stop offset="50%" stop-color="#10b981" stop-opacity="0"/>
      <stop offset="100%" stop-color="#059669" stop-opacity="0.15"/>
    </linearGradient>

    <!-- Text glow filter -->
    <filter id="textGlow" x="-20%" y="-20%" width="140%" height="140%">
      <feGaussianBlur in="SourceGraphic" stdDeviation="4" result="blur"/>
      <feColorMatrix in="blur" type="matrix" values="0 0 0 0 0.063  0 0 0 0 0.725  0 0 0 0 0.506  0 0 0 0.35 0" result="greenBlur"/>
      <feMerge>
        <feMergeNode in="greenBlur"/>
        <feMergeNode in="SourceGraphic"/>
      </feMerge>
    </filter>

    <!-- Shadow under cube -->
    <filter id="cubeShadow" x="-30%" y="-30%" width="160%" height="160%">
      <feGaussianBlur in="SourceAlpha" stdDeviation="5"/>
      <feOffset dx="2" dy="4"/>
      <feColorMatrix type="matrix" values="0 0 0 0 0  0 0 0 0 0  0 0 0 0 0  0 0 0 0.3 0"/>
      <feMerge>
        <feMergeNode/>
        <feMergeNode in="SourceGraphic"/>
      </feMerge>
    </filter>

    <!-- Clip for cube group -->
    <clipPath id="cubeClip">
      <polygon points="65,14 92,27.5 65,41 38,27.5 38,55 65,68.5 92,55"/>
    </clipPath>
  </defs>

  <!-- ====== VOXEL CUBE ====== -->
  <g filter="url(#cubeShadow)">

    <!-- Ambient glow -->
    <ellipse cx="65" cy="46" rx="42" ry="38" fill="url(#cubeGlow)"/>

    <!-- Top face (brightest - emerald) -->
    <polygon points="65,14 92,27.5 65,41 38,27.5" fill="#10b981"/>
    <!-- Top face highlight overlay -->
    <polygon points="65,14 92,27.5 65,41 38,27.5" fill="url(#topHighlight)"/>

    <!-- Left face (medium dark) -->
    <polygon points="38,27.5 65,41 65,68.5 38,55" fill="#059669"/>

    <!-- Right face (darkest) -->
    <polygon points="65,41 92,27.5 92,55 65,68.5" fill="#047857"/>

    <!-- Pixel grid overlay -->
    <g clip-path="url(#cubeClip)">

      <!-- Top face grid lines -->
      <g stroke="#0d9668" stroke-width="0.6" opacity="0.55" stroke-linecap="round">
        <!-- Lines parallel to top-right edge (horizontal direction) -->
        <line x1="56" y1="18.5" x2="83" y2="32"/>
        <line x1="47" y1="23" x2="74" y2="36.5"/>
        <!-- Lines parallel to top-left edge (vertical direction) -->
        <line x1="47" y1="32" x2="74" y2="18.5"/>
        <line x1="56" y1="36.5" x2="83" y2="23"/>
      </g>

      <!-- Left face grid lines -->
      <g stroke="#047a56" stroke-width="0.6" opacity="0.5" stroke-linecap="round">
        <!-- Vertical lines -->
        <line x1="47" y1="32" x2="47" y2="59.5"/>
        <line x1="56" y1="36.5" x2="56" y2="64"/>
        <!-- Horizontal lines -->
        <line x1="38" y1="36.5" x2="65" y2="50"/>
        <line x1="38" y1="45.5" x2="65" y2="59"/>
      </g>

      <!-- Right face grid lines -->
      <g stroke="#036b4c" stroke-width="0.6" opacity="0.5" stroke-linecap="round">
        <!-- Vertical lines -->
        <line x1="74" y1="36.5" x2="74" y2="64"/>
        <line x1="83" y1="32" x2="83" y2="59.5"/>
        <!-- Horizontal lines -->
        <line x1="65" y1="50" x2="92" y2="36.5"/>
        <line x1="65" y1="59" x2="92" y2="45.5"/>
      </g>
    </g>

    <!-- Edge highlights -->
    <g stroke="#34d399" stroke-width="0.8" opacity="0.4" stroke-linecap="round" fill="none">
      <!-- Top edge highlight -->
      <line x1="38" y1="27.5" x2="65" y2="14"/>
      <line x1="65" y1="14" x2="92" y2="27.5"/>
    </g>
    <g stroke="#022c22" stroke-width="0.8" opacity="0.3" stroke-linecap="round" fill="none">
      <!-- Bottom edge shadow -->
      <line x1="38" y1="55" x2="65" y2="68.5"/>
      <line x1="65" y1="68.5" x2="92" y2="55"/>
    </g>

    <!-- Subtle specular dot on top face -->
    <circle cx="58" cy="22" r="1.5" fill="#6ee7b7" opacity="0.35"/>

  </g>

  <!-- ====== TEXT ====== -->
  <g filter="url(#textGlow)">
    <text x="118" y="62"
          font-family="'Inter', 'SF Pro Display', 'Segoe UI', system-ui, -apple-system, sans-serif"
          font-weight="800"
          font-size="48"
          letter-spacing="-1"
          dominant-baseline="central">
      <tspan fill="#10b981">Sin</tspan><tspan fill="#e2e8f0">Craft</tspan>
    </text>
  </g>

  <!-- Thin decorative line under text -->
  <line x1="118" y1="82" x2="350" y2="82" stroke="#10b981" stroke-width="1.5" opacity="0.2" stroke-linecap="round"/>
  <line x1="118" y1="82" x2="200" y2="82" stroke="#10b981" stroke-width="1.5" opacity="0.5" stroke-linecap="round"/>
</svg>